<svg xmlns="http://www.w3.org/2000/svg" viewBox="0 0 94 16" shape-rendering="crispEdges"><rect x="7" y="1" width="1" height="1" fill="#6d3cd6"/><rect x="8" y="1" width="1" height="1" fill="#6d3cd6"/><rect x="13" y="1" width="1" height="1" fill="#d3bcff"/><rect x="7" y="2" width="1" height="1" fill="#6d3cd6"/><rect x="8" y="2" width="1" height="1" fill="#6d3cd6"/><rect x="12" y="2" width="1" height="1" fill="#d3bcff"/><rect x="13" y="2" width="1" height="1" fill="#ffffff"/><rect x="14" y="2" width="1" height="1" fill="#d3bcff"/><rect x="7" y="3" width="1" height="1" fill="#9d6bff"/><rect x="8" y="3" width="1" height="1" fill="#9d6bff"/><rect x="13" y="3" width="1" height="1" fill="#d3bcff"/><rect x="7" y="4" width="1" height="1" fill="#9d6bff"/><rect x="8" y="4" width="1" height="1" fill="#9d6bff"/><rect x="6" y="5" width="1" height="1" fill="#9d6bff"/><rect x="7" y="5" width="1" height="1" fill="#d3bcff"/><rect x="8" y="5" width="1" height="1" fill="#d3bcff"/><rect x="9" y="5" width="1" height="1" fill="#9d6bff"/><rect x="5" y="6" width="1" height="1" fill="#9d6bff"/><rect x="6" y="6" width="1" height="1" fill="#d3bcff"/><rect x="7" y="6" width="1" height="1" fill="#d3bcff"/><rect x="8" y="6" width="1" height="1" fill="#d3bcff"/><rect x="9" y="6" width="1" height="1" fill="#d3bcff"/><rect x="10" y="6" width="1" height="1" fill="#9d6bff"/><rect x="1" y="7" width="1" height="1" fill="#6d3cd6"/><rect x="2" y="7" width="1" height="1" fill="#6d3cd6"/><rect x="3" y="7" width="1" height="1" fill="#9d6bff"/><rect x="4" y="7" width="1" height="1" fill="#9d6bff"/><rect x="5" y="7" width="1" height="1" fill="#d3bcff"/><rect x="6" y="7" width="1" height="1" fill="#d3bcff"/><rect x="7" y="7" width="1" height="1" fill="#ffffff"/><rect x="8" y="7" width="1" height="1" fill="#ffffff"/><rect x="9" y="7" width="1" height="1" fill="#d3bcff"/><rect x="10" y="7" width="1" height="1" fill="#d3bcff"/><rect x="11" y="7" width="1" height="1" fill="#9d6bff"/><rect x="12" y="7" width="1" height="1" fill="#9d6bff"/><rect x="13" y="7" width="1" height="1" fill="#6d3cd6"/><rect x="14" y="7" width="1" height="1" fill="#6d3cd6"/><rect x="1" y="8" width="1" height="1" fill="#6d3cd6"/><rect x="2" y="8" width="1" height="1" fill="#6d3cd6"/><rect x="3" y="8" width="1" height="1" fill="#9d6bff"/><rect x="4" y="8" width="1" height="1" fill="#9d6bff"/><rect x="5" y="8" width="1" height="1" fill="#d3bcff"/><rect x="6" y="8" width="1" height="1" fill="#d3bcff"/><rect x="7" y="8" width="1" height="1" fill="#ffffff"/><rect x="8" y="8" width="1" height="1" fill="#ffffff"/><rect x="9" y="8" width="1" height="1" fill="#d3bcff"/><rect x="10" y="8" width="1" height="1" fill="#d3bcff"/><rect x="11" y="8" width="1" height="1" fill="#9d6bff"/><rect x="12" y="8" width="1" height="1" fill="#9d6bff"/><rect x="13" y="8" width="1" height="1" fill="#6d3cd6"/><rect x="14" y="8" width="1" height="1" fill="#6d3cd6"/><rect x="5" y="9" width="1" height="1" fill="#9d6bff"/><rect x="6" y="9" width="1" height="1" fill="#d3bcff"/><rect x="7" y="9" width="1" height="1" fill="#d3bcff"/><rect x="8" y="9" width="1" height="1" fill="#d3bcff"/><rect x="9" y="9" width="1" height="1" fill="#d3bcff"/><rect x="10" y="9" width="1" height="1" fill="#9d6bff"/><rect x="6" y="10" width="1" height="1" fill="#9d6bff"/><rect x="7" y="10" width="1" height="1" fill="#d3bcff"/><rect x="8" y="10" width="1" height="1" fill="#d3bcff"/><rect x="9" y="10" width="1" height="1" fill="#9d6bff"/><rect x="7" y="11" width="1" height="1" fill="#9d6bff"/><rect x="8" y="11" width="1" height="1" fill="#9d6bff"/><rect x="7" y="12" width="1" height="1" fill="#9d6bff"/><rect x="8" y="12" width="1" height="1" fill="#9d6bff"/><rect x="7" y="13" width="1" height="1" fill="#6d3cd6"/><rect x="8" y="13" width="1" height="1" fill="#6d3cd6"/><rect x="7" y="14" width="1" height="1" fill="#6d3cd6"/><rect x="8" y="14" width="1" height="1" fill="#6d3cd6"/><rect x="21" y="4" width="1" height="1" fill="#ece9f5"/><rect x="22" y="4" width="1" height="1" fill="#ece9f5"/><rect x="23" y="4" width="1" height="1" fill="#ece9f5"/><rect x="20" y="5" width="1" height="1" fill="#ece9f5"/><rect x="24" y="5" width="1" height="1" fill="#ece9f5"/><rect x="20" y="6" width="1" height="1" fill="#ece9f5"/><rect x="24" y="6" width="1" height="1" fill="#ece9f5"/><rect x="20" y="7" width="1" height="1" fill="#ece9f5"/><rect x="21" y="7" width="1" height="1" fill="#ece9f5"/><rect x="22" y="7" width="1" height="1" fill="#ece9f5"/><rect x="23" y="7" width="1" height="1" fill="#ece9f5"/><rect x="24" y="7" width="1" height="1" fill="#ece9f5"/><rect x="20" y="8" width="1" height="1" fill="#ece9f5"/><rect x="24" y="8" width="1" height="1" fill="#ece9f5"/><rect x="20" y="9" width="1" height="1" fill="#ece9f5"/><rect x="24" y="9" width="1" height="1" fill="#ece9f5"/><rect x="20" y="10" width="1" height="1" fill="#ece9f5"/><rect x="24" y="10" width="1" height="1" fill="#ece9f5"/><rect x="27" y="4" width="1" height="1" fill="#ece9f5"/><rect x="28" y="4" width="1" height="1" fill="#ece9f5"/><rect x="29" y="4" width="1" height="1" fill="#ece9f5"/><rect x="30" y="4" width="1" height="1" fill="#ece9f5"/><rect x="26" y="5" width="1" height="1" fill="#ece9f5"/><rect x="26" y="6" width="1" height="1" fill="#ece9f5"/><rect x="27" y="7" width="1" height="1" fill="#ece9f5"/><rect x="28" y="7" width="1" height="1" fill="#ece9f5"/><rect x="29" y="7" width="1" height="1" fill="#ece9f5"/><rect x="30" y="8" width="1" height="1" fill="#ece9f5"/><rect x="30" y="9" width="1" height="1" fill="#ece9f5"/><rect x="26" y="10" width="1" height="1" fill="#ece9f5"/><rect x="27" y="10" width="1" height="1" fill="#ece9f5"/><rect x="28" y="10" width="1" height="1" fill="#ece9f5"/><rect x="29" y="10" width="1" height="1" fill="#ece9f5"/><rect x="32" y="4" width="1" height="1" fill="#ece9f5"/><rect x="33" y="4" width="1" height="1" fill="#ece9f5"/><rect x="34" y="4" width="1" height="1" fill="#ece9f5"/><rect x="35" y="4" width="1" height="1" fill="#ece9f5"/><rect x="36" y="4" width="1" height="1" fill="#ece9f5"/><rect x="34" y="5" width="1" height="1" fill="#ece9f5"/><rect x="34" y="6" width="1" height="1" fill="#ece9f5"/><rect x="34" y="7" width="1" height="1" fill="#ece9f5"/><rect x="34" y="8" width="1" height="1" fill="#ece9f5"/><rect x="34" y="9" width="1" height="1" fill="#ece9f5"/><rect x="34" y="10" width="1" height="1" fill="#ece9f5"/><rect x="38" y="4" width="1" height="1" fill="#ece9f5"/><rect x="39" y="4" width="1" height="1" fill="#ece9f5"/><rect x="40" y="4" width="1" height="1" fill="#ece9f5"/><rect x="41" y="4" width="1" height="1" fill="#ece9f5"/><rect x="38" y="5" width="1" height="1" fill="#ece9f5"/><rect x="42" y="5" width="1" height="1" fill="#ece9f5"/><rect x="38" y="6" width="1" height="1" fill="#ece9f5"/><rect x="42" y="6" width="1" height="1" fill="#ece9f5"/><rect x="38" y="7" width="1" height="1" fill="#ece9f5"/><rect x="39" y="7" width="1" height="1" fill="#ece9f5"/><rect x="40" y="7" width="1" height="1" fill="#ece9f5"/><rect x="41" y="7" width="1" height="1" fill="#ece9f5"/><rect x="38" y="8" width="1" height="1" fill="#ece9f5"/><rect x="40" y="8" width="1" height="1" fill="#ece9f5"/><rect x="38" y="9" width="1" height="1" fill="#ece9f5"/><rect x="41" y="9" width="1" height="1" fill="#ece9f5"/><rect x="38" y="10" width="1" height="1" fill="#ece9f5"/><rect x="42" y="10" width="1" height="1" fill="#ece9f5"/><rect x="45" y="4" width="1" height="1" fill="#ece9f5"/><rect x="46" y="4" width="1" height="1" fill="#ece9f5"/><rect x="47" y="4" width="1" height="1" fill="#ece9f5"/><rect x="44" y="5" width="1" height="1" fill="#ece9f5"/><rect x="48" y="5" width="1" height="1" fill="#ece9f5"/><rect x="44" y="6" width="1" height="1" fill="#ece9f5"/><rect x="48" y="6" width="1" height="1" fill="#ece9f5"/><rect x="44" y="7" width="1" height="1" fill="#ece9f5"/><rect x="45" y="7" width="1" height="1" fill="#ece9f5"/><rect x="46" y="7" width="1" height="1" fill="#ece9f5"/><rect x="47" y="7" width="1" height="1" fill="#ece9f5"/><rect x="48" y="7" width="1" height="1" fill="#ece9f5"/><rect x="44" y="8" width="1" height="1" fill="#ece9f5"/><rect x="48" y="8" width="1" height="1" fill="#ece9f5"/><rect x="44" y="9" width="1" height="1" fill="#ece9f5"/><rect x="48" y="9" width="1" height="1" fill="#ece9f5"/><rect x="44" y="10" width="1" height="1" fill="#ece9f5"/><rect x="48" y="10" width="1" height="1" fill="#ece9f5"/><rect x="53" y="4" width="1" height="1" fill="#ece9f5"/><rect x="57" y="4" width="1" height="1" fill="#9d6bff"/><rect x="53" y="5" width="1" height="1" fill="#ece9f5"/><rect x="57" y="5" width="1" height="1" fill="#9d6bff"/><rect x="53" y="6" width="1" height="1" fill="#ece9f5"/><rect x="57" y="6" width="1" height="1" fill="#9d6bff"/><rect x="53" y="7" width="1" height="1" fill="#ece9f5"/><rect x="57" y="7" width="1" height="1" fill="#9d6bff"/><rect x="53" y="8" width="1" height="1" fill="#ece9f5"/><rect x="57" y="8" width="1" height="1" fill="#9d6bff"/><rect x="54" y="9" width="1" height="1" fill="#ece9f5"/><rect x="56" y="9" width="1" height="1" fill="#9d6bff"/><rect x="55" y="10" width="1" height="1" fill="#ece9f5"/><rect x="59" y="4" width="1" height="1" fill="#9d6bff"/><rect x="60" y="4" width="1" height="1" fill="#9d6bff"/><rect x="61" y="4" width="1" height="1" fill="#9d6bff"/><rect x="62" y="4" width="1" height="1" fill="#9d6bff"/><rect x="63" y="4" width="1" height="1" fill="#9d6bff"/><rect x="61" y="5" width="1" height="1" fill="#9d6bff"/><rect x="61" y="6" width="1" height="1" fill="#9d6bff"/><rect x="61" y="7" width="1" height="1" fill="#9d6bff"/><rect x="61" y="8" width="1" height="1" fill="#9d6bff"/><rect x="61" y="9" width="1" height="1" fill="#9d6bff"/><rect x="59" y="10" width="1" height="1" fill="#9d6bff"/><rect x="60" y="10" width="1" height="1" fill="#9d6bff"/><rect x="61" y="10" width="1" height="1" fill="#9d6bff"/><rect x="62" y="10" width="1" height="1" fill="#9d6bff"/><rect x="63" y="10" width="1" height="1" fill="#9d6bff"/><rect x="66" y="4" width="1" height="1" fill="#9d6bff"/><rect x="67" y="4" width="1" height="1" fill="#9d6bff"/><rect x="68" y="4" width="1" height="1" fill="#9d6bff"/><rect x="69" y="4" width="1" height="1" fill="#9d6bff"/><rect x="65" y="5" width="1" height="1" fill="#9d6bff"/><rect x="65" y="6" width="1" height="1" fill="#9d6bff"/><rect x="66" y="7" width="1" height="1" fill="#9d6bff"/><rect x="67" y="7" width="1" height="1" fill="#9d6bff"/><rect x="68" y="7" width="1" height="1" fill="#9d6bff"/><rect x="69" y="8" width="1" height="1" fill="#9d6bff"/><rect x="69" y="9" width="1" height="1" fill="#9d6bff"/><rect x="65" y="10" width="1" height="1" fill="#9d6bff"/><rect x="66" y="10" width="1" height="1" fill="#9d6bff"/><rect x="67" y="10" width="1" height="1" fill="#9d6bff"/><rect x="68" y="10" width="1" height="1" fill="#9d6bff"/><rect x="71" y="4" width="1" height="1" fill="#9d6bff"/><rect x="75" y="4" width="1" height="1" fill="#9d6bff"/><rect x="71" y="5" width="1" height="1" fill="#9d6bff"/><rect x="75" y="5" width="1" height="1" fill="#9d6bff"/><rect x="71" y="6" width="1" height="1" fill="#9d6bff"/><rect x="75" y="6" width="1" height="1" fill="#9d6bff"/><rect x="71" y="7" width="1" height="1" fill="#9d6bff"/><rect x="75" y="7" width="1" height="1" fill="#9d6bff"/><rect x="71" y="8" width="1" height="1" fill="#9d6bff"/><rect x="75" y="8" width="1" height="1" fill="#9d6bff"/><rect x="71" y="9" width="1" height="1" fill="#9d6bff"/><rect x="75" y="9" width="1" height="1" fill="#9d6bff"/><rect x="72" y="10" width="1" height="1" fill="#9d6bff"/><rect x="73" y="10" width="1" height="1" fill="#9d6bff"/><rect x="74" y="10" width="1" height="1" fill="#9d6bff"/><rect x="78" y="4" width="1" height="1" fill="#9d6bff"/><rect x="79" y="4" width="1" height="1" fill="#9d6bff"/><rect x="80" y="4" width="1" height="1" fill="#9d6bff"/><rect x="77" y="5" width="1" height="1" fill="#9d6bff"/><rect x="81" y="5" width="1" height="1" fill="#9d6bff"/><rect x="77" y="6" width="1" height="1" fill="#9d6bff"/><rect x="81" y="6" width="1" height="1" fill="#9d6bff"/><rect x="77" y="7" width="1" height="1" fill="#9d6bff"/><rect x="78" y="7" width="1" height="1" fill="#9d6bff"/><rect x="79" y="7" width="1" height="1" fill="#9d6bff"/><rect x="80" y="7" width="1" height="1" fill="#9d6bff"/><rect x="81" y="7" width="1" height="1" fill="#9d6bff"/><rect x="77" y="8" width="1" height="1" fill="#9d6bff"/><rect x="81" y="8" width="1" height="1" fill="#9d6bff"/><rect x="77" y="9" width="1" height="1" fill="#9d6bff"/><rect x="81" y="9" width="1" height="1" fill="#9d6bff"/><rect x="77" y="10" width="1" height="1" fill="#9d6bff"/><rect x="81" y="10" width="1" height="1" fill="#9d6bff"/><rect x="83" y="4" width="1" height="1" fill="#9d6bff"/><rect x="83" y="5" width="1" height="1" fill="#9d6bff"/><rect x="83" y="6" width="1" height="1" fill="#9d6bff"/><rect x="83" y="7" width="1" height="1" fill="#9d6bff"/><rect x="83" y="8" width="1" height="1" fill="#9d6bff"/><rect x="83" y="9" width="1" height="1" fill="#9d6bff"/><rect x="83" y="10" width="1" height="1" fill="#9d6bff"/><rect x="84" y="10" width="1" height="1" fill="#9d6bff"/><rect x="85" y="10" width="1" height="1" fill="#9d6bff"/><rect x="86" y="10" width="1" height="1" fill="#9d6bff"/><rect x="87" y="10" width="1" height="1" fill="#9d6bff"/><rect x="90" y="4" width="1" height="1" fill="#9d6bff"/><rect x="91" y="4" width="1" height="1" fill="#9d6bff"/><rect x="92" y="4" width="1" height="1" fill="#9d6bff"/><rect x="93" y="4" width="1" height="1" fill="#9d6bff"/><rect x="89" y="5" width="1" height="1" fill="#9d6bff"/><rect x="89" y="6" width="1" height="1" fill="#9d6bff"/><rect x="90" y="7" width="1" height="1" fill="#9d6bff"/><rect x="91" y="7" width="1" height="1" fill="#9d6bff"/><rect x="92" y="7" width="1" height="1" fill="#9d6bff"/><rect x="93" y="8" width="1" height="1" fill="#9d6bff"/><rect x="93" y="9" width="1" height="1" fill="#9d6bff"/><rect x="89" y="10" width="1" height="1" fill="#9d6bff"/><rect x="90" y="10" width="1" height="1" fill="#9d6bff"/><rect x="91" y="10" width="1" height="1" fill="#9d6bff"/><rect x="92" y="10" width="1" height="1" fill="#9d6bff"/></svg>